<svg xmlns="http://www.w3.org/2000/svg" viewBox="0 0 19.25 22" width="19.25" height="22">
    <path fill="currentColor"
          d="M11 1.375v.768a6.535 6.535 0 0 1 5.5 6.451v1.435c0 1.951.666 3.846 1.882 5.371l.64.799a1.03 1.03 0 0 1-.803 1.675H1.031a1.03 1.03 0 0 1-.929-.584 1.032 1.032 0 0 1 .124-1.091l.641-.799a8.604 8.604 0 0 0 1.883-5.371V8.594a6.534 6.534 0 0 1 5.5-6.45v-.769a1.374 1.374 0 1 1 2.75 0zm-1.719 2.75a4.471 4.471 0 0 0-4.469 4.469v1.435a10.67 10.67 0 0 1-1.705 5.784h13.036a10.668 10.668 0 0 1-1.706-5.784V8.594a4.471 4.471 0 0 0-4.469-4.469H9.28zm3.094 15.125c0 .692-.288 1.431-.804 1.946S10.317 22 9.625 22c-.73 0-1.431-.288-1.946-.804s-.804-1.254-.804-1.946h5.5z"/>
</svg>
