<svg xmlns="http://www.w3.org/2000/svg" viewBox="0 0 22 22" width="22" height="22">
    <path fill="currentColor"
          d="M11 19.938c4.937 0 8.938-4 8.938-8.938S15.937 2.063 11 2.063A8.935 8.935 0 0 0 2.09 11.7l-2.015.593A11.266 11.266 0 0 1 0 11C0 4.924 4.924 0 11 0s11 4.924 11 11-4.924 11-11 11c-.438 0-.868-.026-1.293-.077l.593-2.011c.232.017.464.026.7.026zm.511-4.151A4.816 4.816 0 0 0 15.812 11a4.81 4.81 0 0 0-4.813-4.813 4.816 4.816 0 0 0-4.787 4.301l-2.087.614-.001-.103c0-3.798 3.077-6.875 6.875-6.875s6.875 3.077 6.875 6.875-3.077 6.875-6.875 6.875c-.034 0-.069-.039-.103-.039l.614-2.05zm-9.835-2.531 8.804-2.587a.676.676 0 0 1 .851.851l-2.587 8.766c-.176.636-.997.709-1.276.15l-1.229-2.462c-.03-.095-.069-.112-.112-.159l-3.78 3.781a1.375 1.375 0 0 1-1.945-1.942l3.781-3.781a.766.766 0 0 0-.158-.112l-2.463-1.229c-.558-.279-.486-1.1.113-1.276z"/>
</svg>
