<svg xmlns="http://www.w3.org/2000/svg" viewBox="0 0 17.5 20" width="17.5" height="20">
    <path fill="currentColor"
          d="M9.375 1.25c1.035 0 1.875.839 1.875 1.875v13.75c0 1.035-.84 1.875-1.875 1.875h-1.25a1.876 1.876 0 0 1-1.875-1.875V3.125c0-1.036.84-1.875 1.875-1.875h1.25zm0 1.875h-1.25v13.75h1.25V3.125zM3.125 8.75C4.16 8.75 5 9.59 5 10.625v6.25c0 1.035-.84 1.875-1.875 1.875h-1.25A1.875 1.875 0 0 1 0 16.875v-6.25C0 9.59.839 8.75 1.875 8.75h1.25zm0 1.875h-1.25v6.25h1.25v-6.25zm9.375-5c0-1.035.84-1.875 1.875-1.875h1.25c1.035 0 1.875.84 1.875 1.875v11.25c0 1.035-.84 1.875-1.875 1.875h-1.25a1.876 1.876 0 0 1-1.875-1.875V5.625zm1.875 11.25h1.25V5.625h-1.25v11.25z"/>
</svg>
