<svg xmlns="http://www.w3.org/2000/svg" viewBox="0 0 21 24" width="21" height="24">
    <path fill="currentColor"
          d="M3.432 12l7.505 -7.847c0.428 -0.45 0.415 -1.162 -0.035 -1.591S9.741 2.149 9.314 2.597l-8.25 8.625c-0.416 0.437 -0.416 1.119 0 1.556l8.25 8.625c0.429 0.448 1.141 0.464 1.591 0.035C11.133 21.216 11.25 20.92 11.25 20.625c0 -0.28 -0.104 -0.56 -0.312 -0.778L3.432 12zM19.936 19.847L12.431 12l7.505 -7.847c0.428 -0.45 0.415 -1.162 -0.035 -1.591s-1.162 -0.413 -1.591 0.035l-8.25 8.625c-0.416 0.437 -0.416 1.119 0 1.556l8.25 8.625c0.429 0.448 1.141 0.464 1.591 0.035C20.133 21.216 20.25 20.92 20.25 20.625C20.25 20.344 20.147 20.067 19.936 19.847z"/>
</svg>