<svg xmlns="http://www.w3.org/2000/svg" viewBox="0 0 20 20" width="20" height="20">
    <path fill="currentColor"
          d="M5.66 10.66a2.695 2.695 0 0 1 0-3.773 2.601 2.601 0 0 1 3.719 0l.621.629.621-.629a2.601 2.601 0 0 1 3.719 0 2.695 2.695 0 0 1 0 3.773l-3.461 3.512a1.228 1.228 0 0 1-1.758 0L5.66 10.66zM20 10c0 5.523-4.477 10-10 10S0 15.523 0 10 4.477 0 10 0s10 4.477 10 10zM10 1.875A8.124 8.124 0 0 0 1.875 10 8.124 8.124 0 0 0 10 18.125 8.124 8.124 0 0 0 18.125 10 8.124 8.124 0 0 0 10 1.875z"/>
</svg>
