<svg xmlns="http://www.w3.org/2000/svg" viewBox="0 0 20 20" width="20" height="20">
    <path fill="currentColor"
          d="M10 0C4.477 0 0 4.477 0 10s4.477 10 10 10 10-4.477 10-10S15.523 0 10 0zm0 18.125c-4.48 0-8.125-3.645-8.125-8.125S5.52 1.875 10 1.875 18.125 5.52 18.125 10 14.48 18.125 10 18.125zm0-5c-.703 0-1.25.547-1.25 1.25s.512 1.25 1.25 1.25c.668 0 1.25-.547 1.25-1.25s-.582-1.25-1.25-1.25zM11.293 5H9.297a2.717 2.717 0 0 0-2.734 2.734c0 .508.43.938.938.938s.938-.43.938-.938c-.001-.468.354-.859.823-.859h1.996c.504 0 .93.391.93.859 0 .313-.156.551-.43.707L9.531 9.805a.964.964 0 0 0-.468.82v.625c0 .508.43.938.938.938s.937-.43.937-.938v-.078l1.762-1.094c.82-.508 1.328-1.406 1.328-2.344C14.063 6.211 12.852 5 11.293 5z"/>
</svg>
