<svg xmlns="http://www.w3.org/2000/svg" viewBox="0 0 22 22" width="22" height="22">
    <path fill="currentColor"
          d="M12.22 8.065c-.387.12-.795.146-1.22.146-.425 0-.834-.026-1.22-.146l-2.986 5.1a9.898 9.898 0 0 0 4.206.929 9.816 9.816 0 0 0 8.598-5.023c.322-.455.954-.623 1.448-.339.49.288.662.915.374 1.409A12.023 12.023 0 0 1 11 16.157c-1.882 0-3.665-.434-5.251-1.242l-3.828 6.574a1.03 1.03 0 1 1-1.78-1.04l3.836-6.553a12.128 12.128 0 0 1-3.398-3.755 1.033 1.033 0 0 1 .376-1.409 1.056 1.056 0 0 1 1.409.339 9.766 9.766 0 0 0 2.659 3.034l2.999-5.122a4.13 4.13 0 0 1-1.147-2.858A4.101 4.101 0 0 1 11 0a4.126 4.126 0 0 1 2.978 6.982l2.299 3.927a8.521 8.521 0 0 1-1.77 1.061l-2.286-3.906zM11 2.024c-1.139 0-2.063.962-2.063 2.063 0 1.177.924 2.063 2.063 2.063s2.063-.885 2.063-2.063c0-1.1-.924-2.063-2.063-2.063zm10.489 19.834c-.49.288-1.16.125-1.409-.37l-3.132-5.345a13.621 13.621 0 0 0 1.775-1.057l3.137 5.362c.288.49.125 1.121-.37 1.409z"/>
</svg>
