<svg xmlns="http://www.w3.org/2000/svg" viewBox="0 0 20 20" width="20" height="20">
    <path fill="currentColor"
          d="M2.5 3.75A1.25 1.25 0 0 0 1.25 5v1.559l7.641 5.602c.66.484 1.559.484 2.219 0l7.64-5.602V5a1.25 1.25 0 0 0-1.25-1.25h-15zM1.25 8.109V15c0 .691.559 1.25 1.25 1.25h15A1.25 1.25 0 0 0 18.75 15V8.109l-6.902 5.059a3.129 3.129 0 0 1-3.695 0L1.25 8.109zM0 5c0-1.379 1.121-2.5 2.5-2.5h15C18.879 2.5 20 3.621 20 5v10c0 1.379-1.121 2.5-2.5 2.5h-15A2.502 2.502 0 0 1 0 15V5z"/>
</svg>
