<svg xmlns="http://www.w3.org/2000/svg" viewBox="0 0 16.5 22" width="16.5" height="22">
    <path fill="currentColor"
          d="M3.438 11v2.75c0 .759.616 1.375 1.375 1.375h6.875c.759 0 1.375-.616 1.375-1.375V11c0-.759-.616-1.375-1.375-1.375H4.813c-.759 0-1.375.614-1.375 1.375zm12.258-6.988L12.489.805A2.761 2.761 0 0 0 10.545 0H2.75A2.75 2.75 0 0 0 0 2.75v16.5A2.75 2.75 0 0 0 2.75 22h11a2.758 2.758 0 0 0 2.75-2.75V5.955a2.75 2.75 0 0 0-.804-1.943zM14.438 19.25c0 .38-.308.688-.688.688H2.751a.688.688 0 0 1-.688-.688V2.756c0-.38.308-.688.688-.688h6.875V5.5c0 .759.616 1.375 1.375 1.375H14.4V19.25zM4.125 5.5h3.438a.69.69 0 0 0 0-1.376H4.125a.689.689 0 0 0 0 1.376zm0 2.75h3.438a.69.69 0 0 0 0-1.376H4.125a.689.689 0 0 0 0 1.376zm8.25 8.25H8.937a.687.687 0 1 0 0 1.376h3.438a.687.687 0 1 0 0-1.376z"/>
</svg>
