<svg xmlns="http://www.w3.org/2000/svg" viewBox="0 0 25 20" width="25" height="20">
    <path fill="currentColor"
          d="M12.051 5.285a.86.86 0 0 0 .242-.977 6.78 6.78 0 0 0-.297-.605l-.121-.211a6.753 6.753 0 0 0-.383-.57c-.223-.297-.613-.395-.965-.277l-1.101.363a4.929 4.929 0 0 0-1.414-.816l-.238-1.133C7.7.696 7.419.407 7.051.364 6.785.328 6.52.313 6.25.313s-.535.016-.797.047c-.367.043-.648.336-.723.695l-.238 1.136c-.52.195-.996.473-1.414.816l-1.105-.359c-.352-.117-.742-.02-.965.277a8.153 8.153 0 0 0-.387.57l-.117.207a6.356 6.356 0 0 0-.297.609c-.145.34-.035.727.242.977l.867.773a5.03 5.03 0 0 0 0 1.629l-.867.773a.86.86 0 0 0-.242.977c.09.207.188.41.297.609l.117.203c.117.199.246.387.387.57.223.297.613.395.965.277l1.102-.363c.418.344.898.625 1.414.816l.238 1.137c.074.363.355.652.723.695a6.769 6.769 0 0 0 1.594 0c.367-.043.648-.336.723-.695l.238-1.137c.52-.195.996-.473 1.414-.816l1.102.363c.352.117.742.02.965-.277.137-.184.266-.371.383-.57l.121-.211a6.78 6.78 0 0 0 .297-.605c.145-.34.035-.727-.242-.977l-.867-.773a5.115 5.115 0 0 0 0-1.632l.867-.773zm-3.926 1.59a1.876 1.876 0 1 1-3.751-.001 1.876 1.876 0 0 1 3.751.001zm11.59 12.676a.86.86 0 0 0 .977.242c.207-.09.41-.188.605-.297l.211-.121c.195-.117.387-.246.57-.383.297-.223.395-.613.277-.965l-.363-1.102c.344-.418.625-.898.816-1.414l1.137-.238c.363-.074.652-.355.695-.723a6.769 6.769 0 0 0 0-1.594c-.043-.367-.336-.648-.695-.723l-1.137-.242a4.992 4.992 0 0 0-.816-1.414l.363-1.102c.117-.352.02-.742-.277-.965a8.153 8.153 0 0 0-.57-.387l-.207-.117a6.356 6.356 0 0 0-.609-.297c-.34-.145-.727-.035-.977.242l-.773.867a5.115 5.115 0 0 0-1.632 0l-.773-.867a.86.86 0 0 0-.977-.242c-.207.09-.41.188-.609.297l-.203.117a5.491 5.491 0 0 0-.57.387c-.297.223-.395.613-.277.965l.363 1.102a4.929 4.929 0 0 0-.816 1.414l-1.137.234c-.363.074-.652.355-.695.723a6.769 6.769 0 0 0 0 1.594c.043.367.336.648.695.723l1.137.238c.195.52.473.996.816 1.414l-.363 1.102c-.117.352-.02.742.277.965.184.137.371.266.57.383l.211.121c.195.109.398.207.605.297.34.145.727.035.977-.242l.773-.867a5.115 5.115 0 0 0 1.632 0l.773.867zm-1.59-3.926a1.876 1.876 0 1 1 .001-3.751 1.876 1.876 0 0 1-.001 3.751z"/>
</svg>
