<svg xmlns="http://www.w3.org/2000/svg" viewBox="0 0 27 24" width="27" height="24">
    <path fill="currentColor"
          d="M26.602 10.767C27.075 11.17 27.136 11.878 26.733 12.352C26.33 12.825 25.622 12.886 25.148 12.483L24 11.508V20.25C24 22.322 22.322 24 20.25 24H6.75C4.679 24 3 22.322 3 20.25V11.508L1.853 12.483C1.379 12.886 0.669 12.825 0.267 12.352C-0.135 11.878 -0.077 11.17 0.397 10.767L12.773 0.267C13.191 -0.089 13.809 -0.089 14.227 0.267L26.602 10.767zM6.75 21.75H9V14.625C9 13.589 9.839 12.75 10.875 12.75H16.125C17.161 12.75 18 13.589 18 14.625V21.75H20.25C21.08 21.75 21.75 21.08 21.75 20.25V9.6L13.5 2.6L5.25 9.6V20.25C5.25 21.08 5.92 21.75 6.75 21.75V21.75zM11.25 21.75H15.75V15H11.25V21.75z"/>
</svg>