<svg xmlns="http://www.w3.org/2000/svg" viewBox="0 0 22 22" width="22" height="22">
    <path fill="currentColor"
          d="m20.638 13.763-4.22-1.809a2.244 2.244 0 0 0-2.63.642l-1.179 1.439a12.822 12.822 0 0 1-4.641-4.602L9.41 8.252a2.259 2.259 0 0 0 .645-2.623L8.237 1.355A2.257 2.257 0 0 0 5.664.058l-3.92.904A2.236 2.236 0 0 0 0 3.153c0 10.394 8.452 18.846 18.846 18.846 1.055 0 1.956-.717 2.153-1.742l.905-3.925a2.18 2.18 0 0 0-1.266-2.57zm-.705 2.105-.906 3.928c-.02.047-.091.141-.181.141-9.255 0-16.784-7.528-16.784-16.784 0-.09.056-.16.144-.181l3.925-.906a.192.192 0 0 1 .215.107l1.811 4.225a.187.187 0 0 1-.054.218L6.007 8.297a1.032 1.032 0 0 0-.273 1.252 14.694 14.694 0 0 0 6.682 6.682c.391.211.949.098 1.253-.273l1.719-2.1a.177.177 0 0 1 .211-.048l4.222 1.809c.081.073.129.164.111.25z"/>
</svg>
