<svg xmlns="http://www.w3.org/2000/svg" viewBox="0 0 20 20" width="20" height="20">
    <path  fill="currentColor"
            d="M6.184 3.181c0.043 0.183 0.066 0.373 0.066 0.569 0 1.379 -1.117 2.5 -2.5 2.5 -0.196 0 -0.386 -0.023 -0.569 -0.066 -0.279 0.496 -0.504 1.027 -0.67 1.582 -0.148 0.5 -0.67 0.781 -1.166 0.633 -0.496 -0.148 -0.779 -0.668 -0.631 -1.164 0.225 -0.758 0.538 -1.473 0.929 -2.137C1.395 4.707 1.25 4.246 1.25 3.75c0 -1.38 1.12 -2.5 2.5 -2.5 0.496 0 0.957 0.145 1.348 0.393 0.664 -0.391 1.379 -0.705 2.137 -0.929 0.496 -0.148 1.016 0.135 1.164 0.631 0.148 0.496 -0.133 1.018 -0.633 1.166 -0.555 0.166 -1.086 0.391 -1.582 0.67zm8.719 -1.538C15.293 1.395 15.754 1.25 16.25 1.25c1.383 0 2.5 1.12 2.5 2.5 0 0.496 -0.145 0.957 -0.395 1.348 0.391 0.664 0.672 1.379 0.93 2.137 0.148 0.496 -0.133 1.016 -0.629 1.164 -0.496 0.148 -1.02 -0.133 -1.168 -0.633 -0.164 -0.555 -0.391 -1.086 -0.668 -1.582 -0.184 0.043 -0.375 0.066 -0.57 0.066 -1.379 0 -2.5 -1.121 -2.5 -2.5 0 -0.196 0.023 -0.386 0.066 -0.569 -0.531 -0.279 -1.027 -0.504 -1.582 -0.67 -0.496 -0.148 -0.781 -0.67 -0.633 -1.166 0.148 -0.496 0.668 -0.779 1.168 -0.631 0.754 0.225 1.469 0.538 2.133 0.929zM3.181 13.816c0.183 -0.043 0.373 -0.066 0.569 -0.066 1.383 0 2.5 1.121 2.5 2.5 0 0.195 -0.023 0.387 -0.066 0.57 0.496 0.277 1.027 0.504 1.582 0.668 0.5 0.148 0.781 0.672 0.633 1.168 -0.148 0.496 -0.668 0.777 -1.164 0.629 -0.758 -0.258 -1.473 -0.539 -2.137 -0.93 -0.391 0.25 -0.852 0.395 -1.348 0.395 -1.38 0 -2.5 -1.117 -2.5 -2.5 0 -0.496 0.145 -0.957 0.393 -1.348 -0.391 -0.664 -0.705 -1.379 -0.929 -2.133 -0.148 -0.5 0.135 -1.02 0.631 -1.168 0.496 -0.148 1.018 0.137 1.166 0.633 0.166 0.555 0.391 1.051 0.67 1.582zm15.175 1.086c0.25 0.391 0.395 0.852 0.395 1.348 0 1.383 -1.117 2.5 -2.5 2.5 -0.496 0 -0.957 -0.145 -1.348 -0.395 -0.664 0.391 -1.379 0.672 -2.133 0.93 -0.5 0.148 -1.02 -0.133 -1.168 -0.629 -0.148 -0.496 0.137 -1.02 0.633 -1.168 0.555 -0.164 1.051 -0.391 1.582 -0.668 -0.043 -0.184 -0.066 -0.375 -0.066 -0.57 0 -1.379 1.121 -2.5 2.5 -2.5 0.195 0 0.387 0.023 0.57 0.066 0.277 -0.531 0.504 -1.027 0.668 -1.582 0.148 -0.496 0.672 -0.781 1.168 -0.633 0.496 0.148 0.777 0.668 0.629 1.168 -0.258 0.754 -0.539 1.469 -0.93 2.133zM7.531 10.031c0 0.969 0.551 1.813 1.363 2.227 0.461 0.238 0.645 0.801 0.41 1.262 -0.238 0.461 -0.801 0.645 -1.262 0.41 -1.414 -0.723 -2.387 -2.195 -2.387 -3.898 0 -1.129 0.43 -2.156 1.129 -2.934l-0.438 -0.434c-0.289 -0.258 -0.074 -0.695 0.289 -0.695h2.363c0.223 0 0.406 0.184 0.406 0.406v2.363c0 0.328 -0.438 0.543 -0.695 0.285l-0.598 -0.598c-0.363 0.434 -0.582 0.992 -0.582 1.605zm3.227 -3.551c0.238 -0.461 0.801 -0.645 1.262 -0.41 1.414 0.723 2.387 2.195 2.387 3.898 0 1.129 -0.43 2.16 -1.129 2.934l0.434 0.438c0.258 0.254 0.043 0.691 -0.285 0.691h-2.363c-0.223 0 -0.406 -0.18 -0.406 -0.406v-2.363c0 -0.359 0.438 -0.543 0.695 -0.32l0.598 0.633c0.363 -0.434 0.582 -0.992 0.582 -1.605 0 -0.969 -0.551 -1.813 -1.363 -2.227 -0.461 -0.238 -0.645 -0.801 -0.41 -1.262z"/>
</svg>
