<svg xmlns="http://www.w3.org/2000/svg" viewBox="0 0 24.75 22" width="24.75" height="22">
    <path fill="currentColor"
          d="M17.188 10.974V8.938a.69.69 0 0 0-.688-.688h-4.061a4.877 4.877 0 0 0-4.654 3.42 4.048 4.048 0 0 1-.223-1.358 4.81 4.81 0 0 1 4.813-4.813H16.5a.69.69 0 0 0 .688-.688V2.776l4.554 4.099-4.555 4.099zm-2.75-.661h.688v2.063c0 .761.614 1.375 1.375 1.375h.159c.339 0 .666-.125.92-.352l5.973-5.375c.327-.292.511-.709.511-1.147s-.185-.855-.511-1.147L17.613.382a1.489 1.489 0 0 0-2.488 1.109v1.947h-2.75A6.874 6.874 0 0 0 5.5 10.313c0 2.595 1.487 4.258 2.746 5.195.254.189.494.348.718.481.189.116.365.211.511.284.146.073.266.129.352.168.095.043.198.06.305.06h.107a.767.767 0 0 0 .765-.765c0-.335-.228-.632-.498-.838l-.047-.034a1.318 1.318 0 0 1-.215-.176c-.034-.034-.073-.069-.107-.112s-.069-.082-.103-.125a2.342 2.342 0 0 1-.215-.365 2.377 2.377 0 0 1-.185-.962 2.815 2.815 0 0 1 2.814-2.814h1.99zM3.094 1.375A3.092 3.092 0 0 0 0 4.469v14.438a3.092 3.092 0 0 0 3.094 3.094h14.438a3.092 3.092 0 0 0 3.094-3.094v-2.75c0-.571-.46-1.031-1.031-1.031s-1.031.46-1.031 1.031v2.75c0 .571-.46 1.031-1.031 1.031H3.094c-.571 0-1.031-.46-1.031-1.031V4.469c0-.571.46-1.031 1.031-1.031h2.75c.571 0 1.031-.46 1.031-1.031s-.46-1.031-1.031-1.031h-2.75z"/>
</svg>
