<svg xmlns="http://www.w3.org/2000/svg" viewBox="0 0 22 22" width="22" height="22">
    <path fill="currentColor"
          d="m11.576.125 8.091 3.432c.945.401 1.654 1.332 1.646 2.42-.021 4.301-1.77 12.1-9.178 15.645a2.658 2.658 0 0 1-2.269 0C2.462 18.077.709 10.278.688 5.977c-.006-1.087.701-2.019 1.646-2.42L10.429.125c.176-.082.374-.126.571-.125a1.4 1.4 0 0 1 .576.125zM11 2.122 3.138 5.418c-.255.146-.389.37-.388.584.019 3.932 1.65 10.712 8.009 13.759.15.073.331.073.486 0 6.359-3.046 7.988-9.827 8.005-13.758.004-.215-.133-.438-.425-.584L11 2.122z"/>
</svg>
