<svg xmlns="http://www.w3.org/2000/svg" viewBox="0 0 22 22" width="22" height="22">
    <path fill="currentColor"
          d="M20.969 14.781c.571 0 1.031.46 1.031 1.031s-.46 1.031-1.031 1.031H6.716a3.438 3.438 0 1 1 0-2.064h14.253zM2.063 15.813a1.374 1.374 0 1 0 2.748.002 1.374 1.374 0 0 0-2.748-.002zM15.284 5.157a3.437 3.437 0 0 1 6.717 1.032 3.437 3.437 0 0 1-6.717 1.032H1.031a1.03 1.03 0 1 1 0-2.062h14.253zm3.279 2.406c.761 0 1.375-.614 1.375-1.375s-.614-1.375-1.375-1.375-1.375.614-1.375 1.375.614 1.375 1.375 1.375z"/>
</svg>
