<svg xmlns="http://www.w3.org/2000/svg" viewBox="0 0 22 22" width="22" height="22">
    <path fill="currentColor"
          d="M19.25 1.375c1.517 0 2.75 1.231 2.75 2.75v13.75c0 1.517 -1.233 2.75 -2.75 2.75H2.75c-1.519 0 -2.75 -1.233 -2.75 -2.75V4.125c0 -1.519 1.231 -2.75 2.75 -2.75h16.5zm0 2.063H2.75c-0.38 0 -0.688 0.308 -0.688 0.688v2.75h17.875V4.125c0 -0.38 -0.309 -0.688 -0.688 -0.688zM2.75 18.563h3.438V8.938H2.063v8.938c0 0.378 0.308 0.688 0.688 0.688zm5.5 0h11c0.378 0 0.688 -0.309 0.688 -0.688V8.938H8.25v9.625z"/>
</svg>