<svg xmlns="http://www.w3.org/2000/svg" viewBox="0 0 1.074 0.859" width="25" height="20">
    <path fill="currentColor"
          d="M.376.43a.215.215 0 1 0 0-.43.215.215 0 0 0 0 .43zm0-.349a.134.134 0 1 1-.134.134.134.134 0 0 1 .134-.134zm.085.43h-.17A.291.291 0 0 0 0 .801a.058.058 0 0 0 .058.058h.636A.058.058 0 0 0 .752.801.291.291 0 0 0 .461.51zM.082.78A.211.211 0 0 1 .291.592h.17C.569.592.658.674.67.78H.082zM.804.538H.68a.34.34 0 0 1 .125.264.106.106 0 0 1-.017.058h.232c.03 0 .054-.024.054-.055a.268.268 0 0 0-.27-.267zM.725.43a.188.188 0 1 0 0-.376.187.187 0 0 0-.112.038.27.27 0 0 1 .031.123.267.267 0 0 1-.053.159.187.187 0 0 0 .134.056z"/>
</svg>
